<svg xmlns="http://www.w3.org/2000/svg" width="56.25" viewBox="0 0 56.25 37.5" height="37.5" version="1.0"><g fill="#2FDFDF"><g><g><path d="M 1.296875 -0.421875 C 1.222656 -0.546875 1.195312 -0.671875 1.21875 -0.796875 C 1.238281 -0.921875 1.296875 -1.082031 1.390625 -1.28125 C 1.492188 -1.476562 1.628906 -1.726562 1.796875 -2.03125 L 2.390625 -3.046875 L 3.125 -4.25 L 3.9375 -5.546875 L 4.796875 -6.84375 C 3.710938 -6.570312 2.890625 -6.25 2.328125 -5.875 C 2.234375 -5.8125 2.148438 -5.742188 2.078125 -5.671875 L 1.84375 -5.453125 C 1.707031 -5.304688 1.570312 -5.234375 1.4375 -5.234375 C 1.300781 -5.234375 1.195312 -5.25 1.125 -5.28125 C 1.050781 -5.320312 0.992188 -5.367188 0.953125 -5.421875 C 0.835938 -5.554688 0.816406 -5.703125 0.890625 -5.859375 C 1.078125 -6.472656 1.351562 -7.101562 1.71875 -7.75 C 1.914062 -8.113281 2.070312 -8.320312 2.1875 -8.375 C 3.039062 -8.738281 4.820312 -9.003906 7.53125 -9.171875 C 8.40625 -9.234375 9.332031 -9.265625 10.3125 -9.265625 C 10.945312 -9.265625 11.546875 -9.035156 12.109375 -8.578125 C 12.753906 -8.054688 13.078125 -7.410156 13.078125 -6.640625 C 13.078125 -5.617188 12.203125 -4.65625 10.453125 -3.75 C 9.484375 -3.238281 8.578125 -2.882812 7.734375 -2.6875 C 7.515625 -2.632812 7.34375 -2.609375 7.21875 -2.609375 C 7.101562 -2.609375 6.96875 -2.625 6.8125 -2.65625 C 6.664062 -2.6875 6.53125 -2.734375 6.40625 -2.796875 C 6.125 -2.941406 5.984375 -3.113281 5.984375 -3.3125 C 5.984375 -3.601562 6.257812 -3.894531 6.8125 -4.1875 L 8.25 -4.96875 C 9.113281 -5.425781 9.644531 -5.757812 9.84375 -5.96875 C 10.050781 -6.175781 10.15625 -6.34375 10.15625 -6.46875 C 10.15625 -6.601562 10.128906 -6.726562 10.078125 -6.84375 C 10.023438 -6.957031 9.953125 -7.0625 9.859375 -7.15625 C 9.671875 -7.34375 9.460938 -7.4375 9.234375 -7.4375 C 8.773438 -7.4375 8.222656 -7.398438 7.578125 -7.328125 L 6.765625 -5.875 C 5.710938 -3.96875 4.992188 -2.253906 4.609375 -0.734375 C 4.460938 -0.140625 3.882812 0.15625 2.875 0.15625 C 2.050781 0.15625 1.523438 -0.0351562 1.296875 -0.421875 Z M 1.296875 -0.421875" transform="translate(7.976 22.299)"/></g></g></g><g fill="#2FDFDF"><g><g><path d="M 9.859375 -9.328125 C 10.085938 -9.398438 10.335938 -9.4375 10.609375 -9.4375 C 10.878906 -9.4375 11.148438 -9.414062 11.421875 -9.375 C 11.703125 -9.332031 11.992188 -9.265625 12.296875 -9.171875 C 12.609375 -9.085938 12.914062 -8.972656 13.21875 -8.828125 C 13.519531 -8.691406 13.796875 -8.53125 14.046875 -8.34375 C 14.585938 -7.90625 14.859375 -7.390625 14.859375 -6.796875 C 14.859375 -6.097656 14.488281 -5.328125 13.75 -4.484375 C 12.6875 -3.296875 11.164062 -2.234375 9.1875 -1.296875 C 7.9375 -0.710938 6.6875 -0.296875 5.4375 -0.046875 C 4.8125 0.0664062 4.207031 0.125 3.625 0.125 C 3.039062 0.125 2.535156 0.046875 2.109375 -0.109375 C 1.679688 -0.273438 1.332031 -0.476562 1.0625 -0.71875 C 0.800781 -0.957031 0.609375 -1.210938 0.484375 -1.484375 C 0.359375 -1.753906 0.296875 -2.039062 0.296875 -2.34375 C 0.296875 -2.65625 0.382812 -3.015625 0.5625 -3.421875 C 0.75 -3.835938 0.988281 -4.242188 1.28125 -4.640625 C 1.570312 -5.046875 1.898438 -5.4375 2.265625 -5.8125 C 2.628906 -6.195312 2.988281 -6.550781 3.34375 -6.875 C 3.96875 -7.425781 4.566406 -7.898438 5.140625 -8.296875 C 5.710938 -8.691406 6.195312 -9.003906 6.59375 -9.234375 C 6.988281 -9.460938 7.316406 -9.640625 7.578125 -9.765625 C 8.023438 -9.972656 8.296875 -10.078125 8.390625 -10.078125 C 8.492188 -10.078125 8.609375 -10.046875 8.734375 -9.984375 C 8.859375 -9.929688 8.992188 -9.863281 9.140625 -9.78125 C 9.515625 -9.570312 9.753906 -9.421875 9.859375 -9.328125 Z M 3.59375 -1.859375 C 3.664062 -1.859375 3.8125 -1.859375 4.03125 -1.859375 C 4.257812 -1.859375 4.582031 -1.910156 5 -2.015625 C 5.414062 -2.128906 5.84375 -2.28125 6.28125 -2.46875 C 6.71875 -2.664062 7.15625 -2.890625 7.59375 -3.140625 C 8.03125 -3.398438 8.445312 -3.664062 8.84375 -3.9375 C 9.25 -4.21875 9.625 -4.503906 9.96875 -4.796875 C 10.320312 -5.085938 10.625 -5.367188 10.875 -5.640625 C 11.425781 -6.210938 11.703125 -6.644531 11.703125 -6.9375 C 11.703125 -7.25 11.519531 -7.476562 11.15625 -7.625 C 10.90625 -7.726562 10.640625 -7.78125 10.359375 -7.78125 C 9.878906 -7.78125 9.488281 -7.738281 9.1875 -7.65625 C 7.875 -7.039062 6.59375 -6.234375 5.34375 -5.234375 C 4.457031 -4.523438 3.820312 -3.851562 3.4375 -3.21875 C 3.238281 -2.894531 3.140625 -2.59375 3.140625 -2.3125 C 3.140625 -2.03125 3.289062 -1.878906 3.59375 -1.859375 Z M 3.59375 -1.859375" transform="translate(20.307 22.299)"/></g></g></g><g fill="#2FDFDF"><g><g><path d="M 1.65625 -0.21875 C 1.476562 -0.382812 1.347656 -0.566406 1.265625 -0.765625 C 1.179688 -0.972656 1.140625 -1.148438 1.140625 -1.296875 C 1.140625 -1.453125 1.175781 -1.632812 1.25 -1.84375 C 1.332031 -2.050781 1.441406 -2.289062 1.578125 -2.5625 C 1.722656 -2.832031 1.890625 -3.128906 2.078125 -3.453125 C 2.265625 -3.773438 2.460938 -4.097656 2.671875 -4.421875 L 3.3125 -5.40625 C 3.53125 -5.71875 3.742188 -6.015625 3.953125 -6.296875 C 3.054688 -6.003906 2.390625 -5.722656 1.953125 -5.453125 C 1.515625 -5.179688 1.175781 -4.984375 0.9375 -4.859375 C 0.707031 -4.734375 0.519531 -4.671875 0.375 -4.671875 C 0.125 -4.671875 0 -4.828125 0 -5.140625 C 0 -5.585938 0.226562 -6.140625 0.6875 -6.796875 C 1.175781 -7.472656 1.679688 -7.890625 2.203125 -8.046875 C 2.722656 -8.210938 3.300781 -8.367188 3.9375 -8.515625 C 4.582031 -8.660156 5.25 -8.789062 5.9375 -8.90625 C 7.4375 -9.132812 8.832031 -9.25 10.125 -9.25 C 11.601562 -9.25 12.546875 -9.109375 12.953125 -8.828125 C 13.316406 -8.585938 13.566406 -8.25 13.703125 -7.8125 C 13.765625 -7.601562 13.796875 -7.375 13.796875 -7.125 C 13.796875 -6.882812 13.675781 -6.628906 13.4375 -6.359375 C 13.195312 -6.097656 12.882812 -5.851562 12.5 -5.625 C 11.757812 -5.175781 10.789062 -4.769531 9.59375 -4.40625 C 10.269531 -4.28125 10.738281 -4.128906 11 -3.953125 C 11.269531 -3.785156 11.457031 -3.617188 11.5625 -3.453125 C 11.675781 -3.285156 11.734375 -3.070312 11.734375 -2.8125 C 11.734375 -2.550781 11.617188 -2.285156 11.390625 -2.015625 C 11.160156 -1.742188 10.847656 -1.488281 10.453125 -1.25 C 10.054688 -1.007812 9.585938 -0.789062 9.046875 -0.59375 C 8.503906 -0.40625 7.914062 -0.242188 7.28125 -0.109375 C 5.957031 0.179688 4.582031 0.328125 3.15625 0.328125 C 2.53125 0.328125 2.03125 0.144531 1.65625 -0.21875 Z M 5.40625 -5.28125 C 4.726562 -4.113281 4.390625 -3.304688 4.390625 -2.859375 C 4.390625 -2.648438 4.5 -2.457031 4.71875 -2.28125 C 4.925781 -2.101562 5.140625 -2.015625 5.359375 -2.015625 C 5.578125 -2.015625 5.816406 -2.023438 6.078125 -2.046875 C 6.347656 -2.066406 6.617188 -2.09375 6.890625 -2.125 C 7.171875 -2.164062 7.445312 -2.210938 7.71875 -2.265625 C 7.988281 -2.316406 8.226562 -2.375 8.4375 -2.4375 C 8.90625 -2.570312 9.140625 -2.710938 9.140625 -2.859375 C 9.140625 -3.117188 8.78125 -3.332031 8.0625 -3.5 C 7.46875 -3.632812 6.90625 -3.703125 6.375 -3.703125 C 6.164062 -3.703125 6.015625 -3.742188 5.921875 -3.828125 C 5.835938 -3.910156 5.796875 -4.007812 5.796875 -4.125 C 5.796875 -4.238281 5.847656 -4.351562 5.953125 -4.46875 C 6.066406 -4.582031 6.21875 -4.679688 6.40625 -4.765625 C 7.9375 -5.140625 9.210938 -5.566406 10.234375 -6.046875 C 10.742188 -6.285156 11 -6.460938 11 -6.578125 C 11 -6.753906 10.945312 -6.894531 10.84375 -7 C 10.65625 -7.195312 10.445312 -7.296875 10.21875 -7.296875 C 10 -7.296875 9.742188 -7.285156 9.453125 -7.265625 C 9.171875 -7.253906 8.863281 -7.226562 8.53125 -7.1875 C 7.789062 -7.113281 7.0625 -7.007812 6.34375 -6.875 C 6.238281 -6.664062 6.101562 -6.429688 5.9375 -6.171875 Z M 5.40625 -5.28125" transform="translate(34.958 22.299)"/></g></g></g><path transform="translate(-.138 11.842) scale(.74013)" fill="none" d="M 11.903332 13.434169 C 11.803055 13.260002 11.76611 13.085835 11.792499 12.922224 C 11.818888 12.753335 11.898055 12.536946 12.035277 12.262502 C 12.167221 11.993335 12.346666 11.655557 12.578888 11.249169 L 13.38111 9.882224 L 14.368055 8.261946 L 15.476388 6.509724 L 16.642777 4.762779 C 15.180833 5.126946 14.061944 5.559724 13.291388 6.06639 C 13.164721 6.150835 13.053888 6.235279 12.964166 6.330279 L 12.652777 6.63639 C 12.462777 6.82639 12.278055 6.92139 12.09861 6.92139 C 11.913888 6.92139 11.771388 6.900279 11.67111 6.852779 C 11.570832 6.805279 11.491666 6.747224 11.43361 6.673335 C 11.280555 6.499168 11.254166 6.30389 11.349166 6.092779 C 11.613055 5.253613 11.982499 4.398613 12.468055 3.522501 C 12.737221 3.036946 12.948333 2.757224 13.106666 2.683335 C 14.262499 2.187223 16.669166 1.823057 20.326666 1.60139 C 21.514166 1.527501 22.765 1.490557 24.079167 1.490557 C 24.934167 1.490557 25.746945 1.796668 26.522778 2.40889 C 27.383056 3.110835 27.815834 3.981668 27.815834 5.031946 C 27.815834 6.409446 26.633611 7.707779 24.279722 8.932224 C 22.970833 9.618335 21.746389 10.098613 20.595833 10.373057 C 20.300277 10.441668 20.073333 10.473335 19.909722 10.473335 C 19.751389 10.473335 19.566666 10.452224 19.360833 10.410002 C 19.160277 10.36778 18.975555 10.304446 18.811944 10.22528 C 18.421388 10.03528 18.231388 9.79778 18.231388 9.528613 C 18.231388 9.138057 18.600833 8.742224 19.350277 8.341113 L 21.308333 7.285557 C 22.469444 6.662779 23.187222 6.214168 23.456389 5.934446 C 23.730833 5.654724 23.868055 5.427779 23.868055 5.248335 C 23.868055 5.06889 23.836389 4.905279 23.7625 4.752224 C 23.693889 4.599168 23.598889 4.461946 23.4775 4.340557 C 23.213611 4.081946 22.933889 3.950001 22.638333 3.950001 C 22.020833 3.950001 21.271389 3.997501 20.395277 4.097779 L 19.286944 6.055835 C 17.861944 8.636668 16.896111 10.958891 16.389444 13.017224 C 16.183611 13.819446 15.402499 14.220558 14.04611 14.220558 C 12.927221 14.220558 12.214721 13.956669 11.903332 13.434169 Z M 40.150001 1.406112 C 40.445557 1.305835 40.778057 1.253057 41.147501 1.253057 C 41.511668 1.253057 41.881112 1.279446 42.255835 1.337501 C 42.630557 1.390279 43.021112 1.480001 43.438057 1.60139 C 43.849724 1.722779 44.26139 1.875835 44.678335 2.065835 C 45.090001 2.250557 45.459446 2.477501 45.786668 2.736112 C 46.520279 3.321946 46.889724 4.013335 46.889724 4.815557 C 46.889724 5.765557 46.388335 6.800002 45.385557 7.929446 C 43.955279 9.549724 41.902223 10.98528 39.22639 12.251946 C 37.542779 13.038335 35.85389 13.59778 34.159723 13.925002 C 33.320556 14.083335 32.507778 14.162502 31.716112 14.162502 C 30.924445 14.162502 30.238334 14.056946 29.663056 13.840558 C 29.093056 13.624169 28.623334 13.355002 28.264445 13.033058 C 27.900278 12.711113 27.636389 12.368057 27.472778 11.993335 C 27.309167 11.623891 27.23 11.233335 27.23 10.821668 C 27.23 10.404724 27.351389 9.924446 27.594167 9.37028 C 27.842222 8.816113 28.164167 8.272502 28.554722 7.728891 C 28.945278 7.185279 29.383334 6.652224 29.874167 6.140279 C 30.365 5.628335 30.850556 5.153335 31.336112 4.715279 C 32.175278 3.965835 32.982778 3.327224 33.753334 2.78889 C 34.529167 2.250557 35.183612 1.828335 35.721945 1.516946 C 36.255001 1.205557 36.698334 0.973334 37.057223 0.804446 C 37.664168 0.519446 38.03889 0.376946 38.170834 0.376946 C 38.302779 0.376946 38.455834 0.419168 38.619445 0.498334 C 38.788334 0.577501 38.973057 0.672501 39.173612 0.778057 C 39.669723 1.057779 39.996945 1.26889 40.150001 1.406112 Z M 31.663334 11.486669 C 31.774167 11.491946 31.98 11.491946 32.275556 11.491946 C 32.571112 11.491946 33.003889 11.418057 33.568612 11.265002 C 34.133334 11.117224 34.708612 10.911391 35.299723 10.65278 C 35.890834 10.394168 36.481945 10.093335 37.073056 9.75028 C 37.664168 9.407224 38.22889 9.048335 38.772501 8.668335 C 39.310834 8.293613 39.817501 7.908335 40.287223 7.517779 C 40.756946 7.127224 41.168612 6.747224 41.511668 6.383057 C 42.255835 5.612501 42.625279 5.026668 42.625279 4.625557 C 42.625279 4.21389 42.377223 3.902501 41.881112 3.701946 C 41.543334 3.564724 41.184446 3.496112 40.804446 3.496112 C 40.165834 3.496112 39.638057 3.54889 39.22639 3.659724 C 37.453056 4.488335 35.727223 5.575557 34.043612 6.92139 C 32.840278 7.881946 31.98 8.789724 31.462778 9.644724 C 31.198889 10.088057 31.061667 10.499724 31.061667 10.879724 C 31.061667 11.259724 31.262223 11.46028 31.663334 11.486669 Z M 48.842502 13.698058 C 48.615557 13.481669 48.44139 13.233613 48.325279 12.959169 C 48.209168 12.679446 48.151113 12.441946 48.151113 12.236113 C 48.151113 12.035557 48.209168 11.79278 48.314724 11.513057 C 48.425557 11.233335 48.573335 10.911391 48.763335 10.541946 C 48.953335 10.172502 49.169724 9.771391 49.417779 9.338613 C 49.665835 8.905835 49.935002 8.467779 50.220002 8.024446 L 51.075002 6.699724 C 51.375835 6.272224 51.666113 5.871113 51.951113 5.501668 C 50.737224 5.886946 49.834724 6.266946 49.248891 6.631113 C 48.663057 7.000557 48.214446 7.269724 47.897779 7.438613 C 47.581113 7.607502 47.322502 7.697224 47.11139 7.697224 C 46.773613 7.697224 46.604724 7.480835 46.604724 7.058613 C 46.604724 6.451668 46.92139 5.702224 47.549446 4.815557 C 48.209168 3.897224 48.884724 3.332501 49.586668 3.110835 C 50.288613 2.894446 51.075002 2.683335 51.940557 2.488057 C 52.806113 2.292779 53.703335 2.118612 54.637502 1.970835 C 56.669447 1.659446 58.553613 1.501112 60.300558 1.501112 C 62.29028 1.501112 63.562225 1.685835 64.116392 2.065835 C 64.607225 2.398335 64.939725 2.857501 65.119169 3.448612 C 65.203614 3.733612 65.245836 4.039724 65.245836 4.366946 C 65.245836 4.699446 65.087503 5.037224 64.765558 5.396113 C 64.448892 5.749724 64.026669 6.087502 63.493614 6.39889 C 62.501391 7.011113 61.192502 7.554724 59.577502 8.040279 C 60.495836 8.219724 61.129169 8.420279 61.488058 8.647224 C 61.841669 8.874168 62.095003 9.101113 62.237503 9.328057 C 62.38528 9.56028 62.459169 9.84528 62.459169 10.193613 C 62.459169 10.547224 62.306114 10.906113 62.000003 11.275557 C 61.699169 11.645002 61.276947 11.993335 60.738614 12.31528 C 60.20028 12.637224 59.566947 12.927502 58.833336 13.191391 C 58.105002 13.450002 57.308058 13.671669 56.453058 13.856391 C 54.669169 14.241669 52.806113 14.436947 50.874446 14.436947 C 50.040557 14.436947 49.359724 14.188891 48.842502 13.698058 Z M 53.919724 6.858057 C 53.006669 8.436113 52.55278 9.528613 52.55278 10.135557 C 52.55278 10.41528 52.700557 10.679168 52.990835 10.921946 C 53.26528 11.148891 53.55028 11.265002 53.845835 11.265002 C 54.146669 11.265002 54.473891 11.254446 54.83278 11.228057 C 55.191669 11.196391 55.555835 11.159446 55.935835 11.111946 C 56.310558 11.064446 56.680002 11.006391 57.044169 10.93778 C 57.408336 10.869169 57.735558 10.79528 58.020558 10.710835 C 58.653891 10.520835 58.96528 10.330835 58.96528 10.135557 C 58.96528 9.781946 58.479725 9.491668 57.503336 9.264724 C 56.706391 9.080002 55.946391 8.990279 55.223335 8.990279 C 54.943613 8.990279 54.743058 8.932224 54.621669 8.821391 C 54.50028 8.705279 54.436946 8.578613 54.436946 8.430835 C 54.436946 8.277779 54.516113 8.124724 54.663891 7.961113 C 54.811669 7.802779 55.012224 7.670835 55.270835 7.565279 C 57.334447 7.053335 59.06028 6.472779 60.443058 5.82889 C 61.123891 5.512224 61.461669 5.269446 61.461669 5.105835 C 61.461669 4.868335 61.393058 4.678335 61.255836 4.535835 C 61.00778 4.271946 60.728058 4.140001 60.427225 4.140001 C 60.121114 4.140001 59.778058 4.155835 59.387502 4.176946 C 58.996947 4.203335 58.580002 4.240279 58.131391 4.287779 C 57.139169 4.382779 56.157502 4.525279 55.186391 4.704724 C 55.049169 4.989724 54.859169 5.311668 54.632224 5.670557 Z M 53.919724 6.858057" stroke="#000" stroke-width=".175"/></svg>